# xmcd
#
# Track frame offsets:
#	150
#	14292
#	30050
#	45660
#	57485
#	71222
#	83925
#	97207
#	107335
#	122079
#
# Disc length: 1810 seconds
#
# Revision: 1
# Processed by: cddbd v1.4b41PL1 Copyright (c) Steve Scherf et al.
# Submitted via: audiograbber 1.80
#
DISCID=7e07100a
DTITLE=Tracey K. Houston - Falling For You
DYEAR=1900
DGENRE=
TTITLE0=Falling For You
TTITLE1=I'm Tired of Being Something ( that means nothing to you )
TTITLE2=Ain't Even Leavin'
TTITLE3=Is There Love After You ?
TTITLE4=Best Years of My Life
TTITLE5=I'll Take You Back
TTITLE6=What's She Got That I Ain't Got
TTITLE7=He's Not For Real
TTITLE8=You Keep On Trying
TTITLE9=Lonesome Town
EXTD=
EXTT0=
EXTT1=
EXTT2=
EXTT3=
EXTT4=
EXTT5=
EXTT6=
EXTT7=
EXTT8=
EXTT9=
PLAYORDER=
